<?xml version="1.0" encoding="UTF-8"?>
<svg version="1.1" xmlns="http://www.w3.org/2000/svg" width="32" height="32">
<path d="M0 0 C10.56 0 21.12 0 32 0 C32 10.56 32 21.12 32 32 C21.44 32 10.88 32 0 32 C0 21.44 0 10.88 0 0 Z " fill="#575757" transform="translate(0,0)"/>
<path d="M0 0 C1.2065625 0.0309375 1.2065625 0.0309375 2.4375 0.0625 C3.4275 2.3725 4.4175 4.6825 5.4375 7.0625 C7.77274782 4.80509377 9.62455073 2.7819239 11.4375 0.0625 C14.0625 -0.125 14.0625 -0.125 16.4375 0.0625 C15.91344437 6.75257182 15.33286075 13.4112487 14.4375 20.0625 C12.4575 20.0625 10.4775 20.0625 8.4375 20.0625 C8.9325 15.6075 8.9325 15.6075 9.4375 11.0625 C9.025 11.7225 8.6125 12.3825 8.1875 13.0625 C7.61 13.7225 7.0325 14.3825 6.4375 15.0625 C5.1175 15.0625 3.7975 15.0625 2.4375 15.0625 C2.1075 14.0725 1.7775 13.0825 1.4375 12.0625 C0.7775 14.7025 0.1175 17.3425 -0.5625 20.0625 C-2.2125 20.0625 -3.8625 20.0625 -5.5625 20.0625 C-4.02173281 0.09809104 -4.02173281 0.09809104 0 0 Z " fill="#F3F3F3" transform="translate(10.5625,5.9375)"/>
</svg>
